<?xml version="1.0" encoding="iso-8859-1"?>
<!-- Uploaded to: SVG Repo, www.svgrepo.com, Generator: SVG Repo Mixer Tools -->
<!DOCTYPE svg PUBLIC "-//W3C//DTD SVG 1.1//EN" "http://www.w3.org/Graphics/SVG/1.1/DTD/svg11.dtd">
<svg fill="#000000" height="800px" width="800px" version="1.1" id="Capa_1" xmlns="http://www.w3.org/2000/svg" xmlns:xlink="http://www.w3.org/1999/xlink"
     viewBox="0 0 454.611 454.611" xml:space="preserve">
<g>
	<path d="M47.148,300.805v132.142c0,11.965,9.699,21.665,21.665,21.665s21.664-9.7,21.664-21.665v-159.53L71.333,292.56
		C64.995,298.898,56.209,301.953,47.148,300.805z"/>
    <path d="M51.559,136.753c9.858-6.483,22.911-6.342,32.676,0.643c-2.312-5.996-17.216-44.65-19.524-50.635H46.593
		c-22.084,0-40.367,16.929-42.508,38.488c-0.298,3.001-0.161-6.916-0.882,136.657c-0.05,9.971,7.992,18.095,17.963,18.145
		c0.031,0,0.062,0,0.093,0c9.928,0,18.002-8.023,18.052-17.963l0.667-132.637v-0.002c0.01-1.975,1.617-3.568,3.591-3.562
		c1.975,0.005,3.572,1.608,3.572,3.582v1.632C48.798,132.826,50.279,134.719,51.559,136.753z"/>
    <path d="M135.165,228.729c-6.625,6.625-28.445,28.444-35.334,35.334v168.884c0,11.965,9.699,21.665,21.665,21.665
		c11.965,0,21.664-9.7,21.664-21.665l-0.393-217.565C141.505,220.389,138.912,224.981,135.165,228.729z"/>
    <circle cx="95.15" cy="37.417" r="37.417"/>
    <path d="M186.764,261.998c0-81.9,0.076-51.626-0.332-132.726c-0.117-23.44-19.283-42.511-42.724-42.511h-17.762
		c-3.36,8.714-19.755,51.235-23.143,60.02l5.393-25.456c0.375-1.767,0.103-3.609-0.767-5.191l-7.34-13.35l6.513-11.845
		c0.452-0.822,0.436-1.822-0.041-2.63c-0.478-0.808-1.346-1.303-2.285-1.303H86.382c-0.938,0-1.807,0.496-2.285,1.303
		c-0.478,0.808-0.493,1.808-0.041,2.63l6.526,11.87l-7.354,13.374c-0.854,1.552-1.132,3.356-0.787,5.094l3.496,17.606
		c19.849,19.372,6.15,5.794,49.228,48.872c3.747,3.747,6.34,8.34,7.604,13.348v-71.628c0-2.082,1.684-3.771,3.766-3.778
		c2.082-0.007,3.777,1.672,3.79,3.755c0.407,80.985,0.332,50.757,0.332,132.545c0,9.971,8.083,18.054,18.054,18.054
		S186.764,271.969,186.764,261.998z"/>
    <path d="M61.088,154.651l-4.187,4.187l-0.646,103.379c-0.044,6.944-2.115,13.397-5.637,18.818c0.076,0.002,0.153,0.011,0.229,0.011
		c2.296,0,4.592-0.875,6.343-2.628l63.832-63.832c3.503-3.503,3.503-9.184,0-12.686l-47.248-47.249
		C70.273,151.149,64.592,151.147,61.088,154.651z"/>
    <path d="M431.436,1.877c-0.009,0-0.018-0.002-0.027-0.002h-48.479c-11.046,0-20,8.954-20,20s8.954,20,19.999,20L270.731,153.439
		c-5.046,5.019-7.046,12.34-5.251,19.227l13.491,51.768l-43.534,41.767c-4.507,4.323-6.735,10.504-6.024,16.709l8.654,75.501
		l-72.13,60.921c-8.439,7.127-9.502,19.746-2.375,28.185c3.956,4.684,9.604,7.095,15.29,7.095c4.558,0,9.14-1.549,12.895-4.721
		l80.315-67.834c5.113-4.318,7.727-10.907,6.965-17.557l-8.745-76.297l44.848-43.027c5.228-5.015,7.335-12.465,5.507-19.476
		l-13.551-52L411.409,69.967v0.387c0,11.046,8.954,20,20,20s20-8.954,20-20V21.876C451.409,10.681,442.219,1.885,431.436,1.877z"/>
</g>
</svg>